<svg xmlns="http://www.w3.org/2000/svg" xmlns:xlink="http://www.w3.org/1999/xlink" width="500"
    zoomAndPan="magnify" viewBox="0 0 375 374.999991" height="500"
    preserveAspectRatio="xMidYMid meet" version="1.0">
    <defs>
        <g />
    </defs>
    <g fill="#ffffff" fill-opacity="1">
        <g transform="translate(171.887746, 196.987077)">
            <g>
                <path
                    d="M 8.460938 -10.09375 C 8.460938 -10.199219 8.429688 -10.363281 8.371094 -10.441406 C 8.175781 -10.636719 7.980469 -10.453125 7.921875 -10.171875 C 7.875 -9.976562 7.84375 -9.765625 7.738281 -9.703125 C 7.53125 -9.449219 6.988281 -9.929688 6.269531 -10.246094 C 5.835938 -10.425781 5.429688 -10.5 4.875 -10.5 C 3.121094 -10.425781 2.339844 -9.796875 1.589844 -8.96875 C 0.839844 -8.144531 0.34375 -6.585938 0.390625 -5.128906 C 0.390625 -4.09375 0.375 -2.683594 1.46875 -1.304688 C 2.234375 -0.390625 3.34375 0.0742188 4.484375 0.0742188 C 5.683594 0.0898438 6.480469 -0.316406 6.855469 -0.601562 L 7.214844 -0.898438 C 7.738281 -1.425781 8.128906 -0.226562 8.28125 -0.0742188 C 8.59375 0.238281 8.878906 -0.015625 8.925781 -0.359375 L 9.195312 -3.121094 C 9.195312 -3.226562 9.300781 -3.703125 9.40625 -3.839844 C 9.511719 -4.003906 9.675781 -4.171875 9.839844 -4.214844 L 9.988281 -4.246094 C 10.246094 -4.171875 10.230469 -4.785156 9.824219 -4.710938 L 5.984375 -4.710938 C 5.851562 -4.710938 5.714844 -4.636719 5.714844 -4.453125 C 5.699219 -4.335938 5.761719 -4.261719 5.910156 -4.246094 L 6.164062 -4.183594 C 6.269531 -4.171875 6.523438 -4.050781 6.691406 -3.855469 C 6.871094 -3.675781 7.003906 -3.226562 7.003906 -3 L 7.003906 -2.640625 C 7.003906 -1.785156 6.464844 -0.898438 5.144531 -0.898438 C 4.425781 -0.898438 3.691406 -1.199219 3.390625 -1.621094 C 3.238281 -1.84375 3.121094 -2.128906 3.03125 -2.476562 C 2.863281 -3.179688 2.820312 -3.660156 2.804688 -4.425781 C 2.789062 -4.828125 2.789062 -5.128906 2.789062 -5.355469 C 2.773438 -6.136719 2.820312 -6.644531 3 -7.363281 C 3.089844 -7.710938 3.226562 -8.085938 3.40625 -8.460938 C 3.78125 -9.195312 4.46875 -9.585938 5.128906 -9.601562 C 6.015625 -9.644531 6.929688 -8.96875 7.335938 -8.488281 C 7.636719 -8.113281 7.816406 -7.769531 7.890625 -7.425781 L 7.933594 -7.199219 C 7.996094 -6.914062 8.25 -6.808594 8.371094 -6.976562 C 8.429688 -7.078125 8.460938 -7.140625 8.460938 -7.453125 Z M 8.460938 -10.09375 " />
            </g>
        </g>
    </g>
    <g fill="#ffffff" fill-opacity="1">
        <g transform="translate(182.47773, 196.987077)">
            <g>
                <path
                    d="M 7.199219 -6.074219 L 3.808594 -6.074219 L 3.839844 -8.640625 C 3.71875 -9.238281 4.320312 -10.019531 4.753906 -10.019531 L 4.90625 -10.050781 C 5.011719 -10.050781 5.128906 -10.109375 5.113281 -10.289062 C 5.113281 -10.484375 4.996094 -10.5 4.875 -10.515625 L 0.703125 -10.515625 C 0.375 -10.558594 0.328125 -10.019531 0.628906 -10.050781 L 0.796875 -10.019531 C 0.988281 -10.003906 1.246094 -9.898438 1.441406 -9.585938 C 1.636719 -9.269531 1.679688 -8.851562 1.679688 -8.609375 L 1.664062 -1.769531 C 1.710938 -0.929688 0.976562 -0.480469 0.75 -0.480469 L 0.601562 -0.449219 C 0.523438 -0.433594 0.40625 -0.359375 0.390625 -0.253906 C 0.34375 -0.0742188 0.496094 0 0.628906 0 L 4.84375 0 C 5.21875 0.0898438 5.113281 -0.449219 4.90625 -0.449219 L 4.753906 -0.480469 C 4.320312 -0.433594 3.765625 -1.09375 3.839844 -1.769531 L 3.808594 -5.460938 L 7.199219 -5.460938 L 7.199219 -1.769531 C 7.273438 -0.976562 6.613281 -0.480469 6.285156 -0.480469 L 6.148438 -0.449219 C 6.046875 -0.433594 5.941406 -0.375 5.925781 -0.253906 C 5.878906 -0.0742188 6.015625 0 6.179688 0 L 10.320312 0 C 10.546875 0 10.648438 -0.0742188 10.664062 -0.210938 C 10.664062 -0.34375 10.515625 -0.433594 10.441406 -0.449219 L 10.320312 -0.480469 C 9.808594 -0.480469 9.316406 -1.140625 9.390625 -1.785156 L 9.390625 -8.566406 C 9.34375 -9.253906 9.824219 -10.066406 10.335938 -10.019531 L 10.484375 -10.050781 C 10.769531 -10.050781 10.710938 -10.558594 10.441406 -10.515625 L 6.253906 -10.515625 C 5.894531 -10.558594 5.894531 -10.003906 6.164062 -10.050781 L 6.285156 -10.019531 C 6.523438 -9.976562 6.824219 -9.796875 6.988281 -9.511719 C 7.171875 -9.253906 7.214844 -8.851562 7.214844 -8.609375 Z M 7.199219 -6.074219 " />
            </g>
        </g>
    </g>
    <g fill="#ffffff" fill-opacity="1">
        <g transform="translate(193.622719, 196.987077)">
            <g>
                <path
                    d="M 0.40625 -5.011719 C 0.449219 -4.394531 0.464844 -3.734375 0.808594 -2.773438 C 1.050781 -2.191406 1.484375 -1.5 1.964844 -1.066406 C 2.445312 -0.644531 3.179688 -0.238281 3.644531 -0.105469 C 4.109375 0.03125 4.738281 0.105469 5.054688 0.105469 C 5.128906 0.105469 5.308594 0.0898438 5.59375 0.0585938 C 5.878906 0.046875 6.089844 0.015625 6.210938 0 C 6.34375 -0.046875 6.570312 -0.121094 6.886719 -0.253906 C 7.53125 -0.554688 7.90625 -0.765625 8.386719 -1.304688 C 8.878906 -1.84375 9.226562 -2.535156 9.40625 -3.121094 C 9.585938 -3.71875 9.660156 -4.335938 9.675781 -5.070312 C 9.71875 -5.984375 9.449219 -8.054688 8.566406 -9.015625 C 7.800781 -10.019531 6.523438 -10.605469 5.070312 -10.605469 C 4.515625 -10.605469 4.15625 -10.546875 3.554688 -10.320312 C 3.269531 -10.214844 3.015625 -10.109375 2.789062 -9.976562 C 2.371094 -9.71875 1.964844 -9.375 1.574219 -8.941406 C 0.539062 -7.828125 0.328125 -5.730469 0.40625 -5.011719 Z M 2.699219 -4.441406 C 2.683594 -4.816406 2.714844 -5.730469 2.789062 -6.570312 C 2.863281 -7.425781 3 -8.144531 3.300781 -8.761719 C 3.765625 -9.660156 4.351562 -9.929688 5.085938 -9.976562 C 5.804688 -9.976562 6.585938 -9.601562 6.886719 -8.894531 C 7.199219 -8.128906 7.246094 -7.425781 7.320312 -6.03125 C 7.335938 -5.671875 7.351562 -5.398438 7.335938 -5.21875 C 7.335938 -5.039062 7.320312 -4.679688 7.289062 -4.140625 C 7.273438 -3.613281 7.261719 -3.226562 7.214844 -2.984375 C 7.171875 -2.761719 7.125 -2.460938 7.019531 -2.113281 C 6.585938 -0.675781 5.59375 -0.539062 5.128906 -0.539062 C 4.695312 -0.539062 4.066406 -0.734375 3.71875 -1.019531 C 3.40625 -1.320312 3.253906 -1.574219 3.074219 -1.921875 C 2.835938 -2.445312 2.699219 -3.75 2.699219 -4.441406 Z M 2.699219 -4.441406 " />
            </g>
        </g>
    </g>
    <g fill="#ffffff" fill-opacity="1">
        <g transform="translate(203.777713, 196.987077)">
            <g>
                <path
                    d="M 7.246094 -10.261719 C 7.246094 -10.335938 7.199219 -10.546875 7.15625 -10.605469 C 6.976562 -10.785156 6.765625 -10.605469 6.703125 -10.363281 C 6.644531 -10.125 6.601562 -9.796875 6.300781 -9.75 C 6.195312 -9.734375 6.015625 -9.78125 5.761719 -9.898438 C 5.488281 -10.035156 5.25 -10.125 5.023438 -10.199219 C 4.589844 -10.378906 4.09375 -10.5 3.660156 -10.515625 C 2.535156 -10.589844 0.511719 -9.945312 0.464844 -7.53125 C 0.421875 -6.164062 1.273438 -5.21875 2.339844 -4.738281 C 2.746094 -4.574219 3.570312 -4.273438 4.410156 -3.914062 C 5.25 -3.570312 5.65625 -3.285156 5.894531 -2.878906 C 6.179688 -2.414062 6.121094 -1.828125 5.984375 -1.53125 C 5.910156 -1.363281 5.804688 -1.230469 5.683594 -1.109375 C 5.445312 -0.871094 4.964844 -0.628906 4.261719 -0.628906 C 4.050781 -0.628906 3.824219 -0.660156 3.601562 -0.703125 C 3.40625 -0.75 3.105469 -0.886719 2.699219 -1.109375 C 1.90625 -1.546875 1.546875 -2.011719 1.320312 -2.386719 C 1.003906 -2.96875 0.914062 -3.703125 0.808594 -3.808594 C 0.585938 -4.109375 0.375 -3.824219 0.375 -3.328125 L 0.375 -0.328125 C 0.328125 0.179688 0.765625 0.148438 0.839844 -0.0898438 L 0.914062 -0.359375 C 1.078125 -1.035156 1.09375 -1.171875 1.273438 -1.214844 C 1.394531 -1.214844 1.558594 -1.019531 1.933594 -0.824219 L 2.488281 -0.496094 C 3.210938 -0.0742188 3.824219 0.046875 4.425781 0.046875 C 5.445312 0.0585938 6.316406 -0.226562 7.09375 -1.066406 C 7.5 -1.5 7.726562 -2.101562 7.800781 -2.894531 C 7.921875 -4.289062 7.289062 -4.964844 6.691406 -5.371094 C 6.496094 -5.503906 6.285156 -5.625 6.074219 -5.730469 C 5.878906 -5.835938 5.519531 -5.953125 4.996094 -6.148438 L 3.765625 -6.613281 C 3.464844 -6.75 3.136719 -6.886719 2.789062 -7.050781 C 2.085938 -7.394531 1.785156 -7.710938 1.738281 -8.265625 C 1.621094 -8.941406 2.371094 -10.09375 3.691406 -9.929688 C 4.46875 -9.824219 5.414062 -9.421875 6 -8.746094 C 6.359375 -8.339844 6.539062 -7.933594 6.675781 -7.515625 L 6.734375 -7.320312 C 6.78125 -6.976562 7.019531 -6.929688 7.15625 -7.09375 C 7.214844 -7.199219 7.246094 -7.304688 7.246094 -7.558594 Z M 7.246094 -10.261719 " />
            </g>
        </g>
    </g>
    <g fill="#ffffff" fill-opacity="1">
        <g transform="translate(212.057707, 196.987077)">
            <g>
                <path
                    d="M 0.359375 -7.304688 C 0.359375 -7.078125 0.433594 -6.871094 0.613281 -6.871094 C 0.734375 -6.855469 0.78125 -6.914062 0.855469 -7.140625 L 0.929688 -7.335938 L 1.183594 -8.011719 C 1.304688 -8.296875 1.621094 -8.894531 1.875 -9.179688 C 2.023438 -9.328125 2.191406 -9.464844 2.386719 -9.570312 C 2.820312 -9.824219 3.148438 -9.929688 3.375 -9.929688 L 3.703125 -9.914062 L 3.703125 -1.933594 C 3.703125 -1.394531 3.421875 -0.78125 3 -0.660156 C 2.714844 -0.539062 2.488281 -0.480469 2.339844 -0.480469 L 2.144531 -0.449219 C 2.039062 -0.433594 1.921875 -0.359375 1.921875 -0.238281 C 1.90625 -0.0742188 1.996094 0 2.191406 0 L 7.378906 0 C 7.484375 0.015625 7.636719 -0.0742188 7.621094 -0.238281 C 7.621094 -0.40625 7.484375 -0.464844 7.378906 -0.464844 L 7.183594 -0.480469 C 6.929688 -0.480469 6.433594 -0.644531 6.179688 -0.898438 C 5.941406 -1.15625 5.878906 -1.53125 5.878906 -1.890625 L 5.863281 -9.914062 L 6.226562 -9.929688 C 6.539062 -9.976562 7.574219 -9.480469 7.933594 -8.730469 C 8.21875 -8.25 8.429688 -7.710938 8.488281 -7.425781 L 8.566406 -7.140625 C 8.609375 -6.703125 9.164062 -6.765625 9.089844 -7.304688 L 9.089844 -10.515625 L 0.359375 -10.515625 Z M 0.359375 -7.304688 " />
            </g>
        </g>
    </g>
    <g fill="#ffffff" fill-opacity="1">
        <g transform="translate(221.642694, 196.987077)">
            <g />
        </g>
    </g>
    <g fill="#ffffff" fill-opacity="1">
        <g transform="translate(230.642682, 196.987077)">
            <g>
                <path
                    d="M 7.46875 -10.515625 L 5.820312 -4.363281 L 4.035156 -10.53125 L 0.75 -10.515625 C 0.464844 -10.515625 0.359375 -10.484375 0.34375 -10.304688 C 0.328125 -10.066406 0.421875 -10.066406 0.601562 -10.050781 L 0.71875 -10.019531 C 0.855469 -10.003906 1.199219 -9.871094 1.378906 -9.613281 C 1.558594 -9.375 1.574219 -8.894531 1.574219 -8.671875 L 1.574219 -1.589844 C 1.574219 -1.304688 1.453125 -0.886719 1.273438 -0.71875 C 1.109375 -0.554688 0.929688 -0.496094 0.796875 -0.480469 L 0.675781 -0.449219 C 0.496094 -0.390625 0.464844 -0.390625 0.421875 -0.285156 C 0.359375 -0.0585938 0.511719 0.015625 0.675781 0.015625 L 3.253906 0.015625 C 3.433594 0.015625 3.554688 -0.015625 3.570312 -0.210938 C 3.570312 -0.328125 3.433594 -0.449219 3.359375 -0.449219 L 3.136719 -0.480469 C 2.96875 -0.480469 2.65625 -0.601562 2.488281 -0.78125 C 2.324219 -0.960938 2.234375 -1.335938 2.25 -1.636719 L 2.25 -8.96875 L 4.679688 -0.644531 C 4.84375 -0.03125 4.90625 0.105469 5.144531 0.105469 C 5.324219 0.121094 5.476562 -0.0742188 5.59375 -0.480469 L 8.070312 -9.523438 L 8.070312 -1.558594 C 8.070312 -1.15625 7.84375 -0.734375 7.5 -0.570312 C 7.140625 -0.375 6.988281 -0.496094 6.945312 -0.238281 C 6.929688 -0.0742188 7.019531 0 7.199219 0 L 11.011719 0 C 11.234375 0.046875 11.414062 -0.253906 11.128906 -0.433594 L 10.933594 -0.511719 C 10.589844 -0.613281 10.214844 -1.019531 10.214844 -1.558594 L 10.214844 -8.683594 C 10.214844 -9.328125 10.515625 -9.929688 10.933594 -10.003906 L 11.203125 -10.050781 C 11.265625 -10.050781 11.386719 -10.140625 11.371094 -10.304688 C 11.355469 -10.484375 11.203125 -10.515625 11.085938 -10.515625 Z M 7.46875 -10.515625 " />
            </g>
        </g>
    </g>
    <g fill="#ffffff" fill-opacity="1">
        <g transform="translate(242.432671, 196.987077)">
            <g>
                <path
                    d="M 6.523438 -3.148438 L 7.171875 -1.515625 C 7.214844 -1.378906 7.261719 -1.019531 7.140625 -0.78125 C 7.019531 -0.554688 6.765625 -0.480469 6.601562 -0.480469 L 6.359375 -0.449219 C 6.195312 -0.433594 6.089844 -0.359375 6.074219 -0.238281 C 6.058594 -0.015625 6.164062 0 6.449219 0 L 10.679688 0 C 11.023438 -0.046875 10.949219 -0.496094 10.679688 -0.449219 L 10.558594 -0.480469 C 10.378906 -0.496094 10.125 -0.675781 9.988281 -0.871094 L 9.691406 -1.320312 C 9.554688 -1.546875 9.480469 -1.679688 9.464844 -1.738281 L 6.03125 -10.019531 C 5.851562 -10.484375 5.761719 -10.621094 5.503906 -10.605469 C 5.25 -10.605469 5.144531 -10.363281 5.011719 -9.960938 L 2.101562 -1.738281 C 1.996094 -1.453125 1.753906 -1.050781 1.46875 -0.796875 C 1.289062 -0.628906 0.976562 -0.480469 0.839844 -0.480469 L 0.691406 -0.449219 C 0.316406 -0.539062 0.148438 0.121094 0.839844 0 L 3.554688 0 C 3.839844 0 3.988281 -0.015625 4.003906 -0.210938 C 4.019531 -0.328125 3.886719 -0.449219 3.78125 -0.449219 L 3.628906 -0.449219 C 3.375 -0.449219 2.671875 -0.554688 2.941406 -1.5 L 3.433594 -3.148438 Z M 3.660156 -3.796875 L 4.964844 -7.410156 L 6.359375 -3.796875 Z M 3.660156 -3.796875 " />
            </g>
        </g>
    </g>
    <g fill="#ffffff" fill-opacity="1">
        <g transform="translate(253.802662, 196.987077)">
            <g>
                <path
                    d="M 9.058594 -8.910156 C 9.058594 -9.105469 9.179688 -9.496094 9.34375 -9.691406 C 9.511719 -9.886719 9.886719 -10.003906 10.066406 -10.019531 L 10.335938 -10.050781 C 10.46875 -10.050781 10.53125 -10.125 10.53125 -10.261719 C 10.53125 -10.425781 10.410156 -10.515625 10.273438 -10.515625 L 7.066406 -10.515625 C 6.871094 -10.515625 6.75 -10.441406 6.734375 -10.304688 C 6.71875 -10.125 6.839844 -10.050781 6.960938 -10.050781 L 7.320312 -10.019531 C 7.546875 -10.003906 7.828125 -9.945312 8.023438 -9.75 C 8.25 -9.554688 8.355469 -9.195312 8.355469 -8.953125 L 8.339844 -3.839844 L 3.644531 -10.53125 L 0.78125 -10.515625 C 0.523438 -10.515625 0.40625 -10.484375 0.390625 -10.304688 C 0.375 -10.078125 0.511719 -10.050781 0.585938 -10.050781 L 0.78125 -10.019531 C 1.003906 -9.976562 1.453125 -9.914062 1.695312 -9.449219 C 1.859375 -9.148438 1.890625 -8.714844 1.890625 -8.398438 L 1.890625 -1.515625 C 1.890625 -1.230469 1.753906 -0.871094 1.515625 -0.703125 C 1.273438 -0.539062 0.976562 -0.480469 0.855469 -0.480469 L 0.660156 -0.449219 C 0.539062 -0.433594 0.449219 -0.359375 0.40625 -0.285156 C 0.34375 -0.0898438 0.496094 0 0.660156 0 L 3.929688 0 C 4.109375 0 4.246094 -0.03125 4.230469 -0.226562 C 4.230469 -0.421875 4.066406 -0.449219 3.945312 -0.464844 L 3.75 -0.496094 C 3.328125 -0.496094 2.460938 -0.839844 2.578125 -1.558594 L 2.59375 -8.265625 L 7.921875 -0.539062 C 8.023438 -0.40625 8.265625 -0.0742188 8.386719 -0.015625 C 8.730469 0.269531 9.058594 0.046875 9.058594 -0.796875 Z M 9.058594 -8.910156 " />
            </g>
        </g>
    </g>
    <g fill="#ffffff" fill-opacity="1">
        <g transform="translate(264.782649, 196.987077)">
            <g>
                <path
                    d="M 6.523438 -3.148438 L 7.171875 -1.515625 C 7.214844 -1.378906 7.261719 -1.019531 7.140625 -0.78125 C 7.019531 -0.554688 6.765625 -0.480469 6.601562 -0.480469 L 6.359375 -0.449219 C 6.195312 -0.433594 6.089844 -0.359375 6.074219 -0.238281 C 6.058594 -0.015625 6.164062 0 6.449219 0 L 10.679688 0 C 11.023438 -0.046875 10.949219 -0.496094 10.679688 -0.449219 L 10.558594 -0.480469 C 10.378906 -0.496094 10.125 -0.675781 9.988281 -0.871094 L 9.691406 -1.320312 C 9.554688 -1.546875 9.480469 -1.679688 9.464844 -1.738281 L 6.03125 -10.019531 C 5.851562 -10.484375 5.761719 -10.621094 5.503906 -10.605469 C 5.25 -10.605469 5.144531 -10.363281 5.011719 -9.960938 L 2.101562 -1.738281 C 1.996094 -1.453125 1.753906 -1.050781 1.46875 -0.796875 C 1.289062 -0.628906 0.976562 -0.480469 0.839844 -0.480469 L 0.691406 -0.449219 C 0.316406 -0.539062 0.148438 0.121094 0.839844 0 L 3.554688 0 C 3.839844 0 3.988281 -0.015625 4.003906 -0.210938 C 4.019531 -0.328125 3.886719 -0.449219 3.78125 -0.449219 L 3.628906 -0.449219 C 3.375 -0.449219 2.671875 -0.554688 2.941406 -1.5 L 3.433594 -3.148438 Z M 3.660156 -3.796875 L 4.964844 -7.410156 L 6.359375 -3.796875 Z M 3.660156 -3.796875 " />
            </g>
        </g>
    </g>
    <g fill="#ffffff" fill-opacity="1">
        <g transform="translate(276.15264, 196.987077)">
            <g>
                <path
                    d="M 8.460938 -10.09375 C 8.460938 -10.199219 8.429688 -10.363281 8.371094 -10.441406 C 8.175781 -10.636719 7.980469 -10.453125 7.921875 -10.171875 C 7.875 -9.976562 7.84375 -9.765625 7.738281 -9.703125 C 7.53125 -9.449219 6.988281 -9.929688 6.269531 -10.246094 C 5.835938 -10.425781 5.429688 -10.5 4.875 -10.5 C 3.121094 -10.425781 2.339844 -9.796875 1.589844 -8.96875 C 0.839844 -8.144531 0.34375 -6.585938 0.390625 -5.128906 C 0.390625 -4.09375 0.375 -2.683594 1.46875 -1.304688 C 2.234375 -0.390625 3.34375 0.0742188 4.484375 0.0742188 C 5.683594 0.0898438 6.480469 -0.316406 6.855469 -0.601562 L 7.214844 -0.898438 C 7.738281 -1.425781 8.128906 -0.226562 8.28125 -0.0742188 C 8.59375 0.238281 8.878906 -0.015625 8.925781 -0.359375 L 9.195312 -3.121094 C 9.195312 -3.226562 9.300781 -3.703125 9.40625 -3.839844 C 9.511719 -4.003906 9.675781 -4.171875 9.839844 -4.214844 L 9.988281 -4.246094 C 10.246094 -4.171875 10.230469 -4.785156 9.824219 -4.710938 L 5.984375 -4.710938 C 5.851562 -4.710938 5.714844 -4.636719 5.714844 -4.453125 C 5.699219 -4.335938 5.761719 -4.261719 5.910156 -4.246094 L 6.164062 -4.183594 C 6.269531 -4.171875 6.523438 -4.050781 6.691406 -3.855469 C 6.871094 -3.675781 7.003906 -3.226562 7.003906 -3 L 7.003906 -2.640625 C 7.003906 -1.785156 6.464844 -0.898438 5.144531 -0.898438 C 4.425781 -0.898438 3.691406 -1.199219 3.390625 -1.621094 C 3.238281 -1.84375 3.121094 -2.128906 3.03125 -2.476562 C 2.863281 -3.179688 2.820312 -3.660156 2.804688 -4.425781 C 2.789062 -4.828125 2.789062 -5.128906 2.789062 -5.355469 C 2.773438 -6.136719 2.820312 -6.644531 3 -7.363281 C 3.089844 -7.710938 3.226562 -8.085938 3.40625 -8.460938 C 3.78125 -9.195312 4.46875 -9.585938 5.128906 -9.601562 C 6.015625 -9.644531 6.929688 -8.96875 7.335938 -8.488281 C 7.636719 -8.113281 7.816406 -7.769531 7.890625 -7.425781 L 7.933594 -7.199219 C 7.996094 -6.914062 8.25 -6.808594 8.371094 -6.976562 C 8.429688 -7.078125 8.460938 -7.140625 8.460938 -7.453125 Z M 8.460938 -10.09375 " />
            </g>
        </g>
    </g>
    <g fill="#ffffff" fill-opacity="1">
        <g transform="translate(286.742624, 196.987077)">
            <g>
                <path
                    d="M 9.390625 0 L 9.523438 -2.578125 L 9.554688 -2.773438 C 9.511719 -3.195312 9.121094 -2.941406 9.074219 -2.730469 L 8.910156 -2.355469 C 8.789062 -2.101562 8.445312 -1.636719 8.101562 -1.351562 C 7.933594 -1.214844 7.695312 -1.078125 7.410156 -0.945312 C 6.808594 -0.660156 6.511719 -0.628906 6.046875 -0.628906 L 4.546875 -0.628906 C 4.304688 -0.628906 4.171875 -0.644531 4.050781 -0.78125 C 3.929688 -0.914062 3.929688 -0.988281 3.945312 -1.363281 L 3.945312 -5.160156 L 5.128906 -5.144531 C 5.476562 -5.144531 5.910156 -4.964844 6.210938 -4.46875 C 6.40625 -4.183594 6.601562 -3.691406 6.703125 -3.511719 C 6.75 -3.421875 6.808594 -3.375 6.886719 -3.375 C 7.066406 -3.328125 7.125 -3.496094 7.140625 -3.675781 L 7.140625 -7.394531 C 7.140625 -7.753906 6.886719 -7.816406 6.75 -7.621094 C 6.675781 -7.5 6.601562 -7.199219 6.464844 -6.914062 C 6.34375 -6.660156 6.121094 -6.253906 5.878906 -6.058594 C 5.640625 -5.863281 5.371094 -5.789062 5.128906 -5.789062 L 3.929688 -5.789062 L 3.945312 -9.253906 L 3.945312 -9.511719 C 3.988281 -9.796875 4.183594 -9.898438 4.53125 -9.898438 L 6.34375 -9.898438 C 6.78125 -9.945312 7.828125 -9.554688 8.070312 -9.074219 C 8.296875 -8.789062 8.503906 -8.25 8.609375 -7.996094 L 8.714844 -7.753906 C 8.714844 -7.394531 9.179688 -7.378906 9.179688 -7.875 L 9.253906 -10.515625 L 0.734375 -10.515625 C 0.570312 -10.515625 0.480469 -10.453125 0.464844 -10.320312 C 0.421875 -10.140625 0.570312 -10.050781 0.644531 -10.050781 L 0.796875 -10.019531 C 0.960938 -10.003906 1.261719 -9.886719 1.5 -9.570312 C 1.738281 -9.269531 1.769531 -8.820312 1.769531 -8.519531 L 1.769531 -1.769531 C 1.769531 -1.425781 1.636719 -0.945312 1.394531 -0.75 C 1.171875 -0.554688 0.886719 -0.480469 0.75 -0.480469 L 0.601562 -0.449219 C 0.464844 -0.433594 0.375 -0.359375 0.359375 -0.253906 C 0.34375 -0.0898438 0.433594 0 0.613281 0 Z M 9.390625 0 " />
            </g>
        </g>
    </g>
    <g fill="#ffffff" fill-opacity="1">
        <g transform="translate(296.751019, 196.987077)">
            <g />
        </g>
    </g>
    <path stroke-linecap="butt"
        transform="matrix(-0.304495, -0.304495, 0.303448, -0.303448, 135.561471, 227.06392)"
        fill="none" stroke-linejoin="miter" d="M 0.00064219 1.497289 L 49.839819 1.497289 "
        stroke="#ffffff" stroke-width="3" stroke-opacity="1" stroke-miterlimit="4" />
    <path stroke-linecap="butt"
        transform="matrix(-0.304827, -0.304827, 0.303448, -0.303448, 115.875218, 207.379674)"
        fill="none" stroke-linejoin="miter" d="M -0.00479161 1.500595 L 37.836849 1.500595 "
        stroke="#ffffff" stroke-width="3" stroke-opacity="1" stroke-miterlimit="4" />
    <path stroke-linecap="butt"
        transform="matrix(-0.304495, -0.304495, 0.303448, -0.303448, 99.968444, 191.4709)"
        fill="none" stroke-linejoin="miter" d="M 0.00302757 1.4973 L 49.842205 1.4973 "
        stroke="#ffffff" stroke-width="3" stroke-opacity="1" stroke-miterlimit="4" />
    <path stroke-linecap="butt"
        transform="matrix(-0.304827, -0.304827, 0.303448, -0.303448, 80.282198, 171.786668)"
        fill="none" stroke-linejoin="miter" d="M -0.0023734 1.500618 L 37.839267 1.500618 "
        stroke="#ffffff" stroke-width="3" stroke-opacity="1" stroke-miterlimit="4" />
    <path stroke-linecap="butt"
        transform="matrix(0.304495, -0.304495, 0.303448, 0.303448, 68.806735, 226.153579)"
        fill="none" stroke-linejoin="miter" d="M -0.00133448 1.500716 L 49.837843 1.500716 "
        stroke="#ffffff" stroke-width="3" stroke-opacity="1" stroke-miterlimit="4" />
    <path stroke-linecap="butt"
        transform="matrix(0.304827, -0.304827, 0.303448, 0.303448, 88.488975, 206.469346)"
        fill="none" stroke-linejoin="miter" d="M -0.000160415 1.503999 L 37.835072 1.497562 "
        stroke="#ffffff" stroke-width="3" stroke-opacity="1" stroke-miterlimit="4" />
    <path stroke-linecap="butt"
        transform="matrix(0.304495, -0.304495, 0.303448, 0.303448, 104.399755, 190.560559)"
        fill="none" stroke-linejoin="miter" d="M 0.00106273 1.500716 L 49.84024 1.500716 "
        stroke="#ffffff" stroke-width="3" stroke-opacity="1" stroke-miterlimit="4" />
    <path stroke-linecap="butt"
        transform="matrix(0.304827, -0.304827, 0.303448, 0.303448, 124.082003, 170.876326)"
        fill="none" stroke-linejoin="miter" d="M 0.00222237 1.503987 L 37.837455 1.49755 "
        stroke="#ffffff" stroke-width="3" stroke-opacity="1" stroke-miterlimit="4" />
</svg>