<svg t="1672404188557" class="icon" viewBox="0 0 1024 1024" version="1.1" xmlns="http://www.w3.org/2000/svg" p-id="2729" xmlns:xlink="http://www.w3.org/1999/xlink" width="28" height="40"><path d="M810.666667 725.333333H213.333333c-119.466667 0-213.333333-93.866667-213.333333-213.333333s93.866667-213.333333 213.333333-213.333333h597.333334c119.466667 0 213.333333 93.866667 213.333333 213.333333s-93.866667 213.333333-213.333333 213.333333zM149.333333 384L213.333333 640h85.333334l64-256H298.666667l-42.666667 192L213.333333 384H149.333333z m512 0v256H725.333333v-64h85.333334c34.133333 0 64-29.866667 64-64v-64c0-34.133333-29.866667-64-64-64h-149.333334z m-213.333333 192V640h128v-64h-34.133333v-128h34.133333V384h-128v64h34.133333v128h-34.133333z m328.533333-55.466667H725.333333v-85.333333h51.2c17.066667 0 29.866667 12.8 34.133334 34.133333v21.333334c0 17.066667-12.8 29.866667-34.133334 29.866666z" p-id="2730" fill="#d81e06"></path></svg>